<svg width="3275" height="3275" viewBox="0 0 3275 3275" fill="none" xmlns="http://www.w3.org/2000/svg">
<path fill-rule="evenodd" clip-rule="evenodd" d="M693 2218.81C1231 2970.81 2160 2849.31 2582.5 2218.81V1079.31C2091.5 304.813 1105.5 412.312 693 1079.31V2218.81ZM1374 870C1110.01 870 896 1084.01 896 1348V1907C896 2170.99 1110.01 2385 1374 2385H1910C2173.99 2385 2388 2170.99 2388 1907V1348C2388 1084.01 2173.99 870 1910 870H1374Z" fill="#242424"/>
<path fill-rule="evenodd" clip-rule="evenodd" d="M838 959.007V2326.51C1377.5 2921.5 2122 2722.5 2462 2326.51V959.007C1844 288 1066 610 838 959.007ZM1374 870C1110.01 870 896 1084.01 896 1348V1907C896 2170.99 1110.01 2385 1374 2385H1910C2173.99 2385 2388 2170.99 2388 1907V1348C2388 1084.01 2173.99 870 1910 870H1374Z" fill="#F3F4EB"/>
<path d="M2336.5 1043L2367 1017" stroke="#242424" stroke-width="3"/>
<path d="M2283.1 983.268L2312.47 955.999" stroke="#242424" stroke-width="3"/>
<path d="M2225.14 930.522L2251.11 900" stroke="#242424" stroke-width="3"/>
<path d="M2161.18 882.508L2184.62 850" stroke="#242424" stroke-width="3"/>
<path d="M2095.62 839.543L2115.52 804.752" stroke="#242424" stroke-width="3"/>
<path d="M2024.79 804.313L2041.75 768" stroke="#242424" stroke-width="3"/>
<path d="M1952.3 773.941L1965.21 736" stroke="#242424" stroke-width="3"/>
<path d="M1875.41 750.02L1884.56 711" stroke="#242424" stroke-width="3"/>
<path d="M1798.56 731.773L1803.5 692" stroke="#242424" stroke-width="3"/>
<path d="M1721.09 721.904L1722.96 681.869" stroke="#242424" stroke-width="3"/>
<path d="M1639 718V676" stroke="#242424" stroke-width="3"/>
<path d="M1655 717.993L1655.61 693" stroke="#242424" stroke-width="3"/>
<path d="M1671 718.993L1672 693" stroke="#242424" stroke-width="3"/>
<path d="M1687 719.993L1688 694" stroke="#242424" stroke-width="3"/>
<path d="M1702 721L1704 694" stroke="#242424" stroke-width="3"/>
<path d="M1734 724L1736 697" stroke="#242424" stroke-width="3"/>
<path d="M1750 726L1752 699" stroke="#242424" stroke-width="3"/>
<path d="M1767 728L1769 701" stroke="#242424" stroke-width="3"/>
<path d="M1782.17 728.913L1785.83 702.088" stroke="#242424" stroke-width="3"/>
<path d="M1813.99 735.825L1817.66 709" stroke="#242424" stroke-width="3"/>
<path d="M1829 738.632L1833.88 712" stroke="#242424" stroke-width="3"/>
<path d="M1845 742.632L1849.88 716" stroke="#242424" stroke-width="3"/>
<path d="M1861.03 745.638L1865.84 718.994" stroke="#242424" stroke-width="3"/>
<path d="M1891 754.363L1897.16 728" stroke="#242424" stroke-width="3"/>
<path d="M1907 759.363L1913.16 733" stroke="#242424" stroke-width="3"/>
<path d="M1920.34 763.618L1928.75 737.885" stroke="#242424" stroke-width="3"/>
<path d="M1937 768.733L1945.41 743" stroke="#242424" stroke-width="3"/>
<path d="M1965 778.994L1975.41 754" stroke="#242424" stroke-width="3"/>
<path d="M1979 784.994L1989.41 760" stroke="#242424" stroke-width="3"/>
<path d="M1995 790.994L2005.41 766" stroke="#242424" stroke-width="3"/>
<path d="M2009.68 796.853L2020.73 772.139" stroke="#242424" stroke-width="3"/>
<path d="M2036 809.738L2049.02 786" stroke="#242424" stroke-width="3"/>
<path d="M2052 816.738L2065.02 793" stroke="#242424" stroke-width="3"/>
<path d="M2066.15 825.045L2080.21 801.91" stroke="#242424" stroke-width="3"/>
<path d="M2080.01 831.956L2094.36 809" stroke="#242424" stroke-width="3"/>
<path d="M2107.27 847.066L2122.69 824.811" stroke="#242424" stroke-width="3"/>
<path d="M2121 855.875L2136.95 834" stroke="#242424" stroke-width="3"/>
<path d="M2134 863.875L2149.95 842" stroke="#242424" stroke-width="3"/>
<path d="M2147 873.132L2163.92 852" stroke="#242424" stroke-width="3"/>
<path d="M2173 891.132L2189.92 870" stroke="#242424" stroke-width="3"/>
<path d="M2186 901.132L2202.92 880" stroke="#242424" stroke-width="3"/>
<path d="M2199 910.132L2215.92 889" stroke="#242424" stroke-width="3"/>
<path d="M2212 920.373L2229.83 900" stroke="#242424" stroke-width="3"/>
<path d="M2236 941.373L2253.83 921" stroke="#242424" stroke-width="3"/>
<path d="M2247.81 952.199L2266.03 932.174" stroke="#242424" stroke-width="3"/>
<path d="M2261 963.025L2279.22 943" stroke="#242424" stroke-width="3"/>
<path d="M2272 974.025L2290.22 954" stroke="#242424" stroke-width="3"/>
<path d="M2293 994.243L2313 976" stroke="#242424" stroke-width="3"/>
<path d="M2304 1006.24L2324 988" stroke="#242424" stroke-width="3"/>
<path d="M2315 1017.71L2335.48 1000" stroke="#242424" stroke-width="3"/>
<path d="M2327 1030.71L2347.48 1013" stroke="#242424" stroke-width="3"/>
<path d="M941.5 1043L911 1017" stroke="#242424" stroke-width="3"/>
<path d="M994.899 983.268L965.527 955.999" stroke="#242424" stroke-width="3"/>
<path d="M1052.86 930.522L1026.89 900" stroke="#242424" stroke-width="3"/>
<path d="M1116.82 882.508L1093.38 850" stroke="#242424" stroke-width="3"/>
<path d="M1182.38 839.543L1162.48 804.752" stroke="#242424" stroke-width="3"/>
<path d="M1253.21 804.313L1236.25 768" stroke="#242424" stroke-width="3"/>
<path d="M1325.7 773.941L1312.79 736" stroke="#242424" stroke-width="3"/>
<path d="M1402.59 750.02L1393.44 711" stroke="#242424" stroke-width="3"/>
<path d="M1479.44 731.773L1474.5 692" stroke="#242424" stroke-width="3"/>
<path d="M1556.91 721.904L1555.04 681.869" stroke="#242424" stroke-width="3"/>
<path d="M1639 718V676" stroke="#242424" stroke-width="3"/>
<path d="M1623 717.993L1622.39 693" stroke="#242424" stroke-width="3"/>
<path d="M1607 718.993L1606 693" stroke="#242424" stroke-width="3"/>
<path d="M1591 719.993L1590 694" stroke="#242424" stroke-width="3"/>
<path d="M1576 721L1574 694" stroke="#242424" stroke-width="3"/>
<path d="M1544 724L1542 697" stroke="#242424" stroke-width="3"/>
<path d="M1528 726L1526 699" stroke="#242424" stroke-width="3"/>
<path d="M1511 728L1509 701" stroke="#242424" stroke-width="3"/>
<path d="M1495.83 728.913L1492.17 702.088" stroke="#242424" stroke-width="3"/>
<path d="M1464 735.825L1460.34 709" stroke="#242424" stroke-width="3"/>
<path d="M1449 738.632L1444.13 712" stroke="#242424" stroke-width="3"/>
<path d="M1433 742.632L1428.13 716" stroke="#242424" stroke-width="3"/>
<path d="M1416.97 745.638L1412.16 718.994" stroke="#242424" stroke-width="3"/>
<path d="M1387 754.363L1380.84 728" stroke="#242424" stroke-width="3"/>
<path d="M1371 759.363L1364.84 733" stroke="#242424" stroke-width="3"/>
<path d="M1357.67 763.618L1349.25 737.885" stroke="#242424" stroke-width="3"/>
<path d="M1341 768.733L1332.59 743" stroke="#242424" stroke-width="3"/>
<path d="M1313 778.994L1302.59 754" stroke="#242424" stroke-width="3"/>
<path d="M1299 784.994L1288.59 760" stroke="#242424" stroke-width="3"/>
<path d="M1283 790.994L1272.59 766" stroke="#242424" stroke-width="3"/>
<path d="M1268.32 796.853L1257.27 772.139" stroke="#242424" stroke-width="3"/>
<path d="M1242 809.738L1228.98 786" stroke="#242424" stroke-width="3"/>
<path d="M1226 816.738L1212.98 793" stroke="#242424" stroke-width="3"/>
<path d="M1211.85 825.045L1197.79 801.91" stroke="#242424" stroke-width="3"/>
<path d="M1198 831.956L1183.64 809" stroke="#242424" stroke-width="3"/>
<path d="M1170.73 847.066L1155.31 824.811" stroke="#242424" stroke-width="3"/>
<path d="M1157 855.875L1141.05 834" stroke="#242424" stroke-width="3"/>
<path d="M1144 863.875L1128.05 842" stroke="#242424" stroke-width="3"/>
<path d="M1131 873.132L1114.07 852" stroke="#242424" stroke-width="3"/>
<path d="M1105 891.132L1088.07 870" stroke="#242424" stroke-width="3"/>
<path d="M1092 901.132L1075.07 880" stroke="#242424" stroke-width="3"/>
<path d="M1079 910.132L1062.07 889" stroke="#242424" stroke-width="3"/>
<path d="M1066 920.373L1048.17 900" stroke="#242424" stroke-width="3"/>
<path d="M1042 941.373L1024.17 921" stroke="#242424" stroke-width="3"/>
<path d="M1030.19 952.199L1011.97 932.174" stroke="#242424" stroke-width="3"/>
<path d="M1017 963.025L998.777 943" stroke="#242424" stroke-width="3"/>
<path d="M1006 974.025L987.777 954" stroke="#242424" stroke-width="3"/>
<path d="M985.001 994.243L964.996 976" stroke="#242424" stroke-width="3"/>
<path d="M974.001 1006.24L953.996 988" stroke="#242424" stroke-width="3"/>
<path d="M962.998 1017.71L942.523 1000" stroke="#242424" stroke-width="3"/>
<path d="M950.998 1030.71L930.523 1013" stroke="#242424" stroke-width="3"/>
<path d="M1619 642C1619 642 1634 657 1637.5 676H1640.5C1645 656.5 1659 642 1659 642H1619Z" fill="#242424"/>
<path d="M895.682 1029.05C894.018 1030.86 892.189 1032.17 890.194 1032.98C888.19 1033.78 886.202 1034.06 884.23 1033.8C882.267 1033.54 880.489 1032.73 878.897 1031.37L883.39 1026.47C884.616 1027.43 886.004 1027.79 887.554 1027.56C889.094 1027.31 890.443 1026.56 891.599 1025.3C892.506 1024.31 893.086 1023.22 893.34 1022.04C893.593 1020.85 893.52 1019.66 893.12 1018.48C892.72 1017.29 891.999 1016.23 890.956 1015.29C889.912 1014.32 888.773 1013.68 887.541 1013.39C886.308 1013.09 885.098 1013.13 883.912 1013.49C882.716 1013.85 881.648 1014.54 880.708 1015.57C879.934 1016.39 879.335 1017.36 878.912 1018.45C878.489 1019.55 878.32 1020.58 878.405 1021.52L873.476 1025.39L860.438 1010.76L875.264 994.591L879.483 998.459L868.489 1010.45L875.143 1018.03L875.293 1017.87C875.159 1016.79 875.325 1015.6 875.791 1014.29C876.248 1012.97 876.992 1011.75 878.024 1010.63C879.571 1008.94 881.352 1007.8 883.365 1007.2C885.369 1006.6 887.415 1006.56 889.502 1007.07C891.589 1007.58 893.526 1008.65 895.314 1010.29C897.156 1011.98 898.407 1013.91 899.068 1016.09C899.728 1018.25 899.78 1020.46 899.225 1022.72C898.668 1024.97 897.488 1027.08 895.682 1029.05ZM918.632 1004.32C916.577 1006.56 914.246 1007.96 911.639 1008.53C909.032 1009.08 906.258 1008.8 903.317 1007.69C900.375 1006.56 897.385 1004.6 894.345 1001.81C891.313 999.018 889.123 996.216 887.772 993.408C886.421 990.582 885.915 987.855 886.254 985.227C886.602 982.589 887.799 980.154 889.846 977.922C891.892 975.69 894.214 974.287 896.812 973.712C899.41 973.138 902.17 973.406 905.094 974.516C908.026 975.618 911.007 977.558 914.038 980.337C917.086 983.132 919.295 985.951 920.665 988.793C922.033 991.618 922.548 994.353 922.21 996.999C921.88 999.636 920.687 1002.08 918.632 1004.32ZM914.372 1000.41C915.969 998.668 916.372 996.507 915.581 993.928C914.789 991.331 912.718 988.497 909.37 985.427C907.156 983.397 905.084 981.923 903.153 981.005C901.223 980.086 899.49 979.7 897.954 979.845C896.409 979.981 895.108 980.626 894.051 981.778C892.462 983.511 892.068 985.672 892.868 988.26C893.66 990.839 895.712 993.656 899.025 996.71C901.239 998.758 903.312 1000.25 905.244 1001.18C907.183 1002.11 908.926 1002.51 910.471 1002.37C912.007 1002.22 913.307 1001.57 914.372 1000.41Z" fill="#242424"/>
<path d="M996.781 910.603L993.167 906.528L988.347 876.913L991.746 873.898L996.892 879.7L994.82 881.538L998.097 901.513L998.294 901.734L1015.05 886.87L1018.79 891.084L996.781 910.603ZM1014.93 903.881L1009.18 897.388L1007.61 895.516L989.894 875.54L994.729 871.251L1019.82 899.543L1014.93 903.881ZM1038.79 883.681C1036.52 885.699 1034.06 886.855 1031.4 887.15C1028.75 887.427 1026.02 886.862 1023.21 885.456C1020.4 884.032 1017.63 881.777 1014.89 878.692C1012.17 875.598 1010.27 872.586 1009.22 869.653C1008.17 866.704 1007.95 863.939 1008.55 861.359C1009.17 858.772 1010.61 856.473 1012.88 854.463C1015.14 852.454 1017.6 851.297 1020.24 850.993C1022.88 850.689 1025.6 851.24 1028.4 852.645C1031.2 854.043 1033.96 856.28 1036.69 859.356C1039.44 862.45 1041.34 865.481 1042.41 868.449C1043.48 871.4 1043.71 874.174 1043.11 876.771C1042.51 879.36 1041.07 881.663 1038.79 883.681ZM1034.96 879.357C1036.73 877.788 1037.35 875.68 1036.83 873.033C1036.31 870.368 1034.54 867.337 1031.53 863.938C1029.53 861.691 1027.62 860.012 1025.8 858.899C1023.97 857.787 1022.29 857.224 1020.74 857.21C1019.19 857.187 1017.83 857.694 1016.66 858.732C1014.9 860.292 1014.29 862.401 1014.82 865.057C1015.34 867.705 1017.09 870.718 1020.07 874.097C1022.07 876.361 1023.97 878.058 1025.8 879.188C1027.63 880.309 1029.32 880.881 1030.88 880.904C1032.42 880.918 1033.78 880.403 1034.96 879.357Z" fill="#242424"/>
<path d="M1148.61 810.462C1146.37 811.89 1144.13 812.776 1141.9 813.119C1139.67 813.456 1137.62 813.259 1135.74 812.53C1133.86 811.801 1132.32 810.559 1131.11 808.802L1136.97 805.072C1137.57 805.9 1138.33 806.471 1139.26 806.784C1140.19 807.087 1141.19 807.14 1142.28 806.944C1143.36 806.748 1144.44 806.309 1145.51 805.628C1146.65 804.901 1147.54 804.058 1148.17 803.102C1148.8 802.134 1149.13 801.134 1149.17 800.1C1149.21 799.066 1148.93 798.085 1148.32 797.157C1147.72 796.185 1146.93 795.493 1145.95 795.08C1144.97 794.666 1143.87 794.56 1142.64 794.76C1141.42 794.953 1140.13 795.48 1138.78 796.339L1135.96 798.135L1133.13 793.681L1135.95 791.885C1137.06 791.178 1137.9 790.367 1138.49 789.454C1139.09 788.534 1139.4 787.574 1139.44 786.574C1139.46 785.564 1139.18 784.6 1138.58 783.682C1138.01 782.772 1137.31 782.117 1136.47 781.718C1135.64 781.301 1134.73 781.143 1133.74 781.246C1132.77 781.342 1131.78 781.707 1130.79 782.342C1129.81 782.964 1129.02 783.716 1128.41 784.598C1127.81 785.48 1127.46 786.411 1127.37 787.389C1127.27 788.357 1127.49 789.297 1128.02 790.21L1122.46 793.752C1121.37 791.939 1120.88 790.044 1121.01 788.066C1121.14 786.071 1121.79 784.165 1122.97 782.349C1124.14 780.522 1125.76 778.951 1127.83 777.635C1129.96 776.279 1132.06 775.501 1134.14 775.302C1136.22 775.085 1138.12 775.372 1139.83 776.163C1141.55 776.953 1142.92 778.158 1143.95 779.778C1145.11 781.567 1145.54 783.41 1145.24 785.306C1144.96 787.196 1144.07 788.876 1142.59 790.348L1142.74 790.597C1145.19 789.48 1147.43 789.216 1149.49 789.805C1151.54 790.377 1153.2 791.663 1154.46 793.663C1155.6 795.449 1156.11 797.372 1155.99 799.432C1155.88 801.476 1155.19 803.462 1153.92 805.393C1152.67 807.317 1150.9 809.006 1148.61 810.462ZM1177.63 792.216C1175.07 793.849 1172.45 794.603 1169.79 794.476C1167.13 794.332 1164.52 793.343 1161.96 791.511C1159.41 789.662 1157.03 786.998 1154.82 783.52C1152.61 780.035 1151.22 776.762 1150.64 773.7C1150.06 770.622 1150.28 767.856 1151.29 765.405C1152.31 762.947 1154.09 760.904 1156.65 759.277C1159.2 757.65 1161.81 756.894 1164.46 757.011C1167.12 757.128 1169.72 758.1 1172.26 759.929C1174.8 761.751 1177.18 764.396 1179.39 767.863C1181.61 771.352 1183.02 774.646 1183.61 777.745C1184.2 780.828 1183.99 783.603 1182.98 786.072C1181.98 788.534 1180.19 790.582 1177.63 792.216ZM1174.52 787.341C1176.52 786.071 1177.47 784.088 1177.37 781.391C1177.27 778.678 1176.01 775.405 1173.57 771.574C1171.95 769.041 1170.33 767.081 1168.7 765.695C1167.08 764.309 1165.5 763.487 1163.98 763.23C1162.45 762.963 1161.03 763.249 1159.71 764.089C1157.73 765.352 1156.79 767.338 1156.89 770.045C1156.99 772.741 1158.25 775.993 1160.66 779.799C1162.27 782.35 1163.88 784.326 1165.51 785.73C1167.14 787.126 1168.72 787.958 1170.25 788.225C1171.77 788.482 1173.2 788.188 1174.52 787.341Z" fill="#242424"/>
<path d="M1285.25 739.543L1283.35 734.971L1290.56 718.056C1291.23 716.404 1291.77 714.963 1292.17 713.732C1292.56 712.502 1292.78 711.38 1292.81 710.367C1292.84 709.354 1292.66 708.364 1292.26 707.397C1291.8 706.294 1291.16 705.454 1290.34 704.876C1289.51 704.287 1288.56 703.958 1287.51 703.889C1286.45 703.819 1285.37 704.015 1284.25 704.477C1283.11 704.953 1282.2 705.609 1281.53 706.444C1280.86 707.269 1280.46 708.212 1280.35 709.274C1280.24 710.332 1280.43 711.458 1280.92 712.652L1274.9 715.146C1273.98 712.928 1273.69 710.791 1274.03 708.734C1274.36 706.677 1275.23 704.832 1276.63 703.198C1278.04 701.56 1279.9 700.263 1282.21 699.307C1284.56 698.336 1286.8 697.921 1288.93 698.062C1291.07 698.203 1292.94 698.833 1294.55 699.952C1296.17 701.066 1297.39 702.601 1298.2 704.558C1298.74 705.866 1299.02 707.254 1299.05 708.724C1299.07 710.194 1298.77 711.958 1298.14 714.016C1297.52 716.07 1296.54 718.657 1295.18 721.779L1291.69 730.398L1291.79 730.636L1307.01 724.333L1309.2 729.622L1285.25 739.543ZM1328.28 722.5C1325.47 723.664 1322.76 723.952 1320.16 723.364C1317.56 722.76 1315.17 721.334 1312.97 719.086C1310.78 716.822 1308.9 713.785 1307.32 709.975C1305.75 706.16 1304.95 702.694 1304.91 699.579C1304.88 696.447 1305.57 693.762 1306.99 691.522C1308.42 689.278 1310.53 687.576 1313.33 686.418C1316.13 685.259 1318.83 684.968 1321.42 685.544C1324.02 686.121 1326.41 687.529 1328.59 689.771C1330.78 692.007 1332.67 695.025 1334.24 698.824C1335.82 702.645 1336.63 706.133 1336.67 709.288C1336.72 712.426 1336.03 715.123 1334.61 717.379C1333.2 719.63 1331.09 721.337 1328.28 722.5ZM1326.06 717.16C1328.25 716.256 1329.53 714.467 1329.9 711.795C1330.28 709.106 1329.6 705.664 1327.86 701.467C1326.71 698.692 1325.45 696.48 1324.09 694.832C1322.73 693.185 1321.32 692.102 1319.87 691.585C1318.41 691.056 1316.96 691.091 1315.51 691.689C1313.34 692.589 1312.07 694.381 1311.7 697.065C1311.33 699.737 1312 703.157 1313.72 707.325C1314.86 710.116 1316.11 712.343 1317.46 714.007C1318.83 715.666 1320.24 716.76 1321.7 717.289C1323.15 717.806 1324.61 717.763 1326.06 717.16Z" fill="#242424"/>
<path d="M1457.27 648.165L1461.94 685.693L1455.14 686.54L1451.29 655.626L1451.07 655.654L1442.99 662.354L1442.22 656.123L1450.8 648.97L1457.27 648.165ZM1485.43 683.495C1482.41 683.871 1479.73 683.43 1477.38 682.172C1475.03 680.9 1473.1 678.889 1471.58 676.138C1470.07 673.374 1469.06 669.945 1468.55 665.853C1468.05 661.759 1468.2 658.205 1468.99 655.191C1469.79 652.163 1471.18 649.758 1473.14 647.976C1475.11 646.192 1477.6 645.113 1480.61 644.739C1483.61 644.365 1486.29 644.8 1488.64 646.046C1490.99 647.292 1492.92 649.285 1494.43 652.025C1495.95 654.763 1496.96 658.173 1497.47 662.253C1497.98 666.358 1497.83 669.936 1497.04 672.988C1496.25 676.026 1494.87 678.443 1492.9 680.24C1490.94 682.034 1488.45 683.119 1485.43 683.495ZM1484.72 677.759C1487.06 677.467 1488.77 676.083 1489.84 673.605C1490.92 671.114 1491.18 667.614 1490.61 663.106C1490.24 660.125 1489.62 657.66 1488.74 655.709C1487.87 653.759 1486.8 652.341 1485.54 651.457C1484.27 650.56 1482.86 650.208 1481.31 650.401C1478.98 650.691 1477.28 652.082 1476.21 654.572C1475.14 657.049 1474.88 660.524 1475.42 664.997C1475.78 667.992 1476.4 670.471 1477.26 672.435C1478.14 674.398 1479.21 675.827 1480.47 676.724C1481.74 677.609 1483.15 677.954 1484.72 677.759Z" fill="#242424"/>
<path d="M1802.46 648.574L1797.46 686.06L1790.67 685.155L1794.79 654.276L1794.57 654.247L1785.05 658.679L1785.88 652.456L1796 647.712L1802.46 648.574ZM1820.74 689.89C1817.73 689.488 1815.24 688.381 1813.28 686.567C1811.34 684.743 1809.98 682.308 1809.21 679.262C1808.45 676.205 1808.34 672.632 1808.89 668.544C1809.44 664.458 1810.49 661.057 1812.02 658.343C1813.56 655.617 1815.51 653.641 1817.86 652.414C1820.22 651.189 1822.9 650.777 1825.9 651.177C1828.9 651.577 1831.38 652.678 1833.34 654.479C1835.3 656.28 1836.66 658.697 1837.42 661.729C1838.2 664.764 1838.31 668.319 1837.77 672.394C1837.22 676.495 1836.18 679.919 1834.63 682.669C1833.1 685.408 1831.15 687.397 1828.79 688.634C1826.44 689.873 1823.75 690.292 1820.74 689.89ZM1821.5 684.161C1823.85 684.473 1825.85 683.566 1827.51 681.441C1829.19 679.304 1830.32 675.985 1830.92 671.482C1831.32 668.504 1831.34 665.961 1830.99 663.853C1830.64 661.744 1829.96 660.102 1828.97 658.925C1827.97 657.737 1826.7 657.039 1825.15 656.833C1822.82 656.522 1820.82 657.436 1819.15 659.574C1817.49 661.699 1816.36 664.995 1815.75 669.459C1815.34 672.447 1815.3 675.001 1815.64 677.12C1815.99 679.241 1816.67 680.895 1817.66 682.084C1818.66 683.26 1819.94 683.952 1821.5 684.161Z" fill="#242424"/>
<path d="M1518.15 614.818V633H1514.85V614.818H1518.15ZM1515.27 613.025L1517.26 608.968H1520.4L1517.68 613.025H1515.27ZM1536.66 614.818V633H1533.73L1525.16 620.615H1525.01V633H1521.71V614.818H1524.66L1533.22 627.212H1533.38V614.818H1536.66ZM1546.41 633H1540.24V614.818H1546.53C1548.34 614.818 1549.89 615.182 1551.18 615.91C1552.48 616.632 1553.48 617.671 1554.18 619.026C1554.88 620.382 1555.23 622.003 1555.23 623.891C1555.23 625.785 1554.88 627.413 1554.17 628.774C1553.48 630.135 1552.47 631.18 1551.15 631.908C1549.83 632.636 1548.25 633 1546.41 633ZM1543.54 630.15H1546.25C1547.51 630.15 1548.57 629.919 1549.42 629.458C1550.26 628.99 1550.9 628.295 1551.32 627.371C1551.75 626.442 1551.96 625.282 1551.96 623.891C1551.96 622.5 1551.75 621.346 1551.32 620.429C1550.9 619.506 1550.27 618.816 1549.43 618.36C1548.6 617.899 1547.57 617.668 1546.34 617.668H1543.54V630.15ZM1561.65 614.818V633H1558.36V614.818H1561.65ZM1580.78 620.953H1577.46C1577.37 620.408 1577.19 619.926 1576.94 619.506C1576.68 619.08 1576.37 618.719 1575.99 618.423C1575.61 618.127 1575.18 617.905 1574.69 617.757C1574.21 617.603 1573.7 617.526 1573.14 617.526C1572.15 617.526 1571.27 617.775 1570.51 618.272C1569.75 618.763 1569.15 619.485 1568.72 620.438C1568.29 621.385 1568.07 622.542 1568.07 623.909C1568.07 625.3 1568.29 626.472 1568.72 627.425C1569.16 628.372 1569.75 629.088 1570.51 629.573C1571.27 630.053 1572.15 630.292 1573.13 630.292C1573.67 630.292 1574.18 630.221 1574.66 630.079C1575.14 629.931 1575.57 629.715 1575.94 629.431C1576.33 629.147 1576.65 628.798 1576.91 628.384C1577.18 627.969 1577.36 627.496 1577.46 626.963L1580.78 626.981C1580.66 627.845 1580.39 628.656 1579.98 629.413C1579.57 630.171 1579.03 630.84 1578.37 631.42C1577.71 631.994 1576.93 632.444 1576.04 632.769C1575.15 633.089 1574.17 633.249 1573.09 633.249C1571.49 633.249 1570.06 632.879 1568.81 632.139C1567.55 631.399 1566.56 630.331 1565.84 628.934C1565.12 627.537 1564.76 625.862 1564.76 623.909C1564.76 621.95 1565.12 620.275 1565.85 618.884C1566.58 617.487 1567.57 616.419 1568.82 615.679C1570.08 614.94 1571.5 614.57 1573.09 614.57C1574.1 614.57 1575.04 614.712 1575.91 614.996C1576.78 615.28 1577.55 615.697 1578.23 616.248C1578.92 616.792 1579.47 617.461 1579.91 618.254C1580.36 619.041 1580.65 619.941 1580.78 620.953ZM1583.8 633V614.818H1595.62V617.579H1587.09V622.515H1595.01V625.276H1587.09V630.239H1595.7V633H1583.8ZM1607.62 614.818L1612.35 629.129H1612.54L1617.26 614.818H1620.88L1614.47 633H1610.41L1604.01 614.818H1607.62ZM1623.28 633V614.818H1635.1V617.579H1626.57V622.515H1634.49V625.276H1626.57V630.239H1635.17V633H1623.28ZM1638.46 633V614.818H1645.28C1646.68 614.818 1647.85 615.061 1648.8 615.546C1649.75 616.031 1650.47 616.712 1650.95 617.588C1651.44 618.458 1651.69 619.473 1651.69 620.633C1651.69 621.799 1651.44 622.811 1650.94 623.669C1650.45 624.522 1649.73 625.182 1648.77 625.649C1647.81 626.111 1646.63 626.342 1645.24 626.342H1640.38V623.607H1644.79C1645.61 623.607 1646.28 623.495 1646.8 623.27C1647.32 623.039 1647.7 622.705 1647.95 622.267C1648.21 621.823 1648.33 621.278 1648.33 620.633C1648.33 619.988 1648.21 619.438 1647.95 618.982C1647.7 618.52 1647.31 618.171 1646.79 617.934C1646.27 617.692 1645.6 617.57 1644.77 617.57H1641.76V633H1638.46ZM1647.86 624.761L1652.36 633H1648.68L1644.26 624.761H1647.86ZM1660.88 633H1654.72V614.818H1661.01C1662.81 614.818 1664.36 615.182 1665.66 615.91C1666.96 616.632 1667.96 617.671 1668.66 619.026C1669.36 620.382 1669.71 622.003 1669.71 623.891C1669.71 625.785 1669.36 627.413 1668.65 628.774C1667.95 630.135 1666.94 631.18 1665.62 631.908C1664.31 632.636 1662.73 633 1660.88 633ZM1658.02 630.15H1660.72C1661.99 630.15 1663.05 629.919 1663.89 629.458C1664.74 628.99 1665.38 628.295 1665.8 627.371C1666.23 626.442 1666.44 625.282 1666.44 623.891C1666.44 622.5 1666.23 621.346 1665.8 620.429C1665.38 619.506 1664.75 618.816 1663.91 618.36C1663.08 617.899 1662.05 617.668 1660.82 617.668H1658.02V630.15ZM1674.2 633H1670.68L1677.08 614.818H1681.15L1687.56 633H1684.04L1679.18 618.547H1679.04L1674.2 633ZM1674.31 625.871H1683.9V628.517H1674.31V625.871ZM1696.11 633H1689.95V614.818H1696.24C1698.04 614.818 1699.59 615.182 1700.89 615.91C1702.19 616.632 1703.19 617.671 1703.89 619.026C1704.59 620.382 1704.94 622.003 1704.94 623.891C1704.94 625.785 1704.59 627.413 1703.88 628.774C1703.18 630.135 1702.17 631.18 1700.85 631.908C1699.54 632.636 1697.96 633 1696.11 633ZM1693.25 630.15H1695.95C1697.22 630.15 1698.28 629.919 1699.12 629.458C1699.97 628.99 1700.6 628.295 1701.03 627.371C1701.46 626.442 1701.67 625.282 1701.67 623.891C1701.67 622.5 1701.46 621.346 1701.03 620.429C1700.6 619.506 1699.97 618.816 1699.14 618.36C1698.31 617.899 1697.28 617.668 1696.05 617.668H1693.25V630.15ZM1708.07 633V614.818H1719.89V617.579H1711.36V622.515H1719.28V625.276H1711.36V630.239H1719.96V633H1708.07ZM1726.55 614.818V633H1723.25V614.818H1726.55ZM1730.11 633V614.818H1736.93C1738.33 614.818 1739.5 615.061 1740.45 615.546C1741.4 616.031 1742.12 616.712 1742.6 617.588C1743.1 618.458 1743.34 619.473 1743.34 620.633C1743.34 621.799 1743.09 622.811 1742.59 623.669C1742.1 624.522 1741.38 625.182 1740.42 625.649C1739.46 626.111 1738.28 626.342 1736.89 626.342H1732.03V623.607H1736.44C1737.26 623.607 1737.93 623.495 1738.45 623.27C1738.97 623.039 1739.35 622.705 1739.6 622.267C1739.86 621.823 1739.98 621.278 1739.98 620.633C1739.98 619.988 1739.86 619.438 1739.6 618.982C1739.35 618.52 1738.96 618.171 1738.44 617.934C1737.92 617.692 1737.25 617.57 1736.42 617.57H1733.41V633H1730.11ZM1739.51 624.761L1744.01 633H1740.33L1735.91 624.761H1739.51ZM1762.62 623.909C1762.62 625.868 1762.25 627.546 1761.52 628.943C1760.79 630.334 1759.8 631.399 1758.54 632.139C1757.28 632.879 1755.86 633.249 1754.26 633.249C1752.67 633.249 1751.25 632.879 1749.99 632.139C1748.73 631.393 1747.74 630.325 1747 628.934C1746.27 627.537 1745.91 625.862 1745.91 623.909C1745.91 621.95 1746.27 620.275 1747 618.884C1747.74 617.487 1748.73 616.419 1749.99 615.679C1751.25 614.94 1752.67 614.57 1754.26 614.57C1755.86 614.57 1757.28 614.94 1758.54 615.679C1759.8 616.419 1760.79 617.487 1761.52 618.884C1762.25 620.275 1762.62 621.95 1762.62 623.909ZM1759.31 623.909C1759.31 622.53 1759.09 621.367 1758.66 620.42C1758.23 619.467 1757.64 618.748 1756.88 618.263C1756.13 617.772 1755.25 617.526 1754.26 617.526C1753.28 617.526 1752.4 617.772 1751.65 618.263C1750.89 618.748 1750.29 619.467 1749.86 620.42C1749.44 621.367 1749.22 622.53 1749.22 623.909C1749.22 625.288 1749.44 626.454 1749.86 627.407C1750.29 628.354 1750.89 629.073 1751.65 629.564C1752.4 630.05 1753.28 630.292 1754.26 630.292C1755.25 630.292 1756.13 630.05 1756.88 629.564C1757.64 629.073 1758.23 628.354 1758.66 627.407C1759.09 626.454 1759.31 625.288 1759.31 623.909Z" fill="#242424"/>
<path d="M1942.59 719.163L1944.28 714.51L1961 706.875C1962.61 706.11 1963.98 705.406 1965.1 704.765C1966.23 704.124 1967.14 703.44 1967.85 702.715C1968.56 701.989 1969.09 701.134 1969.45 700.15C1969.85 699.027 1969.94 697.974 1969.72 696.991C1969.51 695.997 1969.03 695.118 1968.3 694.356C1967.57 693.593 1966.64 693.007 1965.5 692.596C1964.33 692.173 1963.22 692.045 1962.16 692.213C1961.11 692.369 1960.18 692.799 1959.38 693.503C1958.59 694.211 1957.97 695.173 1957.53 696.389L1951.4 694.17C1952.22 691.913 1953.44 690.137 1955.08 688.843C1956.71 687.549 1958.6 686.772 1960.73 686.511C1962.88 686.254 1965.13 686.551 1967.48 687.401C1969.86 688.264 1971.8 689.468 1973.28 691.013C1974.77 692.557 1975.72 694.286 1976.16 696.197C1976.6 698.113 1976.47 700.066 1975.75 702.057C1975.26 703.388 1974.54 704.604 1973.56 705.705C1972.59 706.805 1971.18 707.905 1969.32 709.002C1967.49 710.104 1965.01 711.35 1961.9 712.739L1953.52 716.754L1953.43 716.998L1968.92 722.602L1966.97 727.985L1942.59 719.163ZM1985.86 735.587C1983 734.552 1980.81 732.941 1979.29 730.752C1977.78 728.556 1976.97 725.888 1976.86 722.746C1976.77 719.597 1977.43 716.084 1978.83 712.206C1980.24 708.332 1981.99 705.232 1984.06 702.906C1986.15 700.572 1988.47 699.055 1991.03 698.357C1993.6 697.663 1996.3 697.832 1999.15 698.862C2002 699.893 2004.19 701.496 2005.72 703.673C2007.25 705.85 2008.06 708.501 2008.16 711.627C2008.27 714.757 2007.63 718.255 2006.23 722.121C2004.82 726.011 2003.07 729.134 2000.97 731.491C1998.89 733.841 1996.57 735.369 1993.99 736.074C1991.43 736.784 1988.72 736.622 1985.86 735.587ZM1987.83 730.152C1990.05 730.956 1992.2 730.497 1994.28 728.774C1996.37 727.044 1998.19 724.043 1999.73 719.771C2000.76 716.947 2001.32 714.467 2001.43 712.332C2001.53 710.196 2001.22 708.448 2000.5 707.086C1999.78 705.712 1998.68 704.76 1997.21 704.228C1995 703.427 1992.85 703.895 1990.77 705.629C1988.7 707.352 1986.88 710.33 1985.34 714.562C1984.3 717.394 1983.72 719.882 1983.6 722.024C1983.49 724.171 1983.8 725.931 1984.52 727.305C1985.24 728.667 1986.35 729.616 1987.83 730.152Z" fill="#242424"/>
<path d="M2106.1 792.336C2103.79 791.008 2101.97 789.434 2100.64 787.612C2099.31 785.796 2098.53 783.886 2098.31 781.882C2098.09 779.878 2098.48 777.935 2099.47 776.052L2105.49 779.519C2105.03 780.435 2104.88 781.377 2105.03 782.346C2105.19 783.304 2105.61 784.219 2106.29 785.092C2106.96 785.965 2107.85 786.718 2108.95 787.351C2110.12 788.027 2111.28 788.423 2112.42 788.54C2113.56 788.647 2114.61 788.48 2115.54 788.039C2116.48 787.598 2117.22 786.894 2117.76 785.928C2118.34 784.942 2118.59 783.92 2118.5 782.861C2118.42 781.803 2118 780.775 2117.26 779.776C2116.52 778.784 2115.46 777.889 2114.07 777.09L2111.18 775.421L2113.81 770.845L2116.71 772.514C2117.85 773.171 2118.96 773.549 2120.04 773.646C2121.13 773.749 2122.13 773.585 2123.03 773.153C2123.94 772.71 2124.66 772.011 2125.2 771.055C2125.75 770.134 2126 769.208 2125.97 768.28C2125.95 767.347 2125.67 766.467 2125.12 765.641C2124.59 764.82 2123.81 764.115 2122.78 763.525C2121.78 762.947 2120.75 762.594 2119.69 762.465C2118.62 762.336 2117.64 762.457 2116.73 762.828C2115.82 763.188 2115.09 763.817 2114.53 764.716L2108.82 761.425C2109.92 759.615 2111.38 758.308 2113.19 757.506C2115.02 756.698 2117.01 756.397 2119.16 756.602C2121.33 756.796 2123.47 757.504 2125.59 758.727C2127.78 759.987 2129.44 761.492 2130.58 763.242C2131.73 764.986 2132.35 766.802 2132.45 768.688C2132.54 770.574 2132.11 772.349 2131.15 774.013C2130.09 775.865 2128.66 777.098 2126.84 777.713C2125.03 778.334 2123.13 778.326 2121.14 777.69L2121 777.946C2123.11 779.594 2124.39 781.464 2124.82 783.558C2125.26 785.646 2124.89 787.712 2123.7 789.754C2122.64 791.588 2121.17 792.93 2119.29 793.778C2117.42 794.622 2115.34 794.929 2113.05 794.699C2110.76 794.476 2108.44 793.688 2106.1 792.336ZM2135.7 809.625C2133.06 808.107 2131.18 806.137 2130.06 803.716C2128.96 801.29 2128.63 798.522 2129.07 795.41C2129.53 792.293 2130.79 788.949 2132.85 785.375C2134.92 781.808 2137.18 779.06 2139.63 777.131C2142.09 775.198 2144.64 774.111 2147.28 773.87C2149.93 773.635 2152.57 774.273 2155.19 775.785C2157.82 777.297 2159.69 779.259 2160.82 781.669C2161.94 784.08 2162.28 786.832 2161.84 789.927C2161.4 793.029 2160.15 796.361 2158.1 799.923C2156.04 803.507 2153.77 806.277 2151.29 808.231C2148.83 810.182 2146.27 811.279 2143.62 811.525C2140.97 811.776 2138.33 811.143 2135.7 809.625ZM2138.58 804.617C2140.63 805.797 2142.83 805.72 2145.17 804.387C2147.53 803.048 2149.85 800.411 2152.12 796.475C2153.62 793.873 2154.6 791.529 2155.08 789.445C2155.56 787.361 2155.56 785.585 2155.08 784.118C2154.61 782.639 2153.7 781.51 2152.35 780.729C2150.31 779.555 2148.11 779.641 2145.76 780.985C2143.42 782.319 2141.11 784.935 2138.85 788.832C2137.34 791.44 2136.33 793.788 2135.84 795.876C2135.36 797.971 2135.35 799.757 2135.82 801.236C2136.3 802.703 2137.22 803.83 2138.58 804.617Z" fill="#242424"/>
<path d="M2231.35 871.54L2234.9 867.412L2263.61 858.673L2267.05 861.637L2261.99 867.514L2259.89 865.706L2240.53 871.627L2240.34 871.851L2257.31 886.468L2253.64 890.736L2231.35 871.54ZM2240.44 888.63L2246.1 882.054L2247.75 880.255L2265.17 860.022L2270.07 864.24L2245.39 892.896L2240.44 888.63ZM2263.65 909.571C2261.35 907.586 2259.87 905.3 2259.22 902.712C2258.6 900.123 2258.79 897.342 2259.81 894.368C2260.84 891.392 2262.71 888.342 2265.4 885.217C2268.1 882.1 2270.83 879.824 2273.59 878.387C2276.38 876.948 2279.09 876.358 2281.72 876.615C2284.37 876.88 2286.84 878.001 2289.14 879.977C2291.43 881.953 2292.91 884.231 2293.56 886.809C2294.22 889.388 2294.03 892.156 2293.02 895.112C2292.01 898.077 2290.16 901.117 2287.48 904.233C2284.78 907.367 2282.03 909.662 2279.23 911.119C2276.45 912.575 2273.73 913.175 2271.08 912.919C2268.43 912.671 2265.96 911.555 2263.65 909.571ZM2267.42 905.191C2269.21 906.734 2271.39 907.069 2273.94 906.198C2276.51 905.325 2279.28 903.168 2282.24 899.726C2284.2 897.45 2285.61 895.333 2286.47 893.374C2287.33 891.416 2287.66 889.672 2287.47 888.141C2287.28 886.601 2286.6 885.321 2285.41 884.301C2283.63 882.766 2281.46 882.439 2278.9 883.32C2276.34 884.191 2273.59 886.33 2270.64 889.736C2268.67 892.014 2267.24 894.132 2266.36 896.091C2265.5 898.059 2265.16 899.813 2265.34 901.353C2265.54 902.883 2266.23 904.163 2267.42 905.191Z" fill="#242424"/>
<path d="M2360.47 1002.27C2358.82 1000.44 2357.68 998.494 2357.06 996.431C2356.45 994.361 2356.37 992.356 2356.81 990.417C2357.25 988.487 2358.23 986.794 2359.73 985.336L2364.19 990.269C2363.12 991.4 2362.63 992.748 2362.71 994.313C2362.81 995.869 2363.43 997.282 2364.58 998.552C2365.48 999.548 2366.51 1000.23 2367.66 1000.59C2368.82 1000.96 2370.01 1000.99 2371.23 1000.71C2372.44 1000.42 2373.57 999.802 2374.6 998.852C2375.67 997.904 2376.41 996.83 2376.82 995.631C2377.23 994.431 2377.31 993.224 2377.06 992.008C2376.81 990.784 2376.22 989.656 2375.29 988.624C2374.54 987.775 2373.64 987.089 2372.59 986.564C2371.53 986.04 2370.53 985.776 2369.58 985.771L2366.19 980.5L2381.98 968.895L2396.69 985.174L2392.44 989.011L2381.53 976.939L2373.36 982.852L2373.51 983.016C2374.59 982.984 2375.77 983.261 2377.03 983.848C2378.29 984.427 2379.44 985.283 2380.46 986.415C2382 988.115 2382.97 989.994 2383.37 992.054C2383.78 994.106 2383.63 996.147 2382.93 998.177C2382.22 1000.21 2380.97 1002.03 2379.17 1003.66C2377.32 1005.34 2375.27 1006.4 2373.05 1006.85C2370.83 1007.31 2368.63 1007.15 2366.43 1006.39C2364.24 1005.62 2362.26 1004.25 2360.47 1002.27ZM2382.93 1027.44C2380.89 1025.18 2379.71 1022.73 2379.39 1020.08C2379.09 1017.43 2379.63 1014.7 2381.01 1011.87C2382.41 1009.05 2384.64 1006.26 2387.7 1003.49C2390.77 1000.74 2393.77 998.819 2396.69 997.738C2399.63 996.659 2402.39 996.411 2404.98 996.996C2407.57 997.589 2409.88 999.01 2411.91 1001.26C2413.94 1003.5 2415.12 1005.95 2415.45 1008.59C2415.78 1011.23 2415.25 1013.95 2413.87 1016.76C2412.5 1019.57 2410.29 1022.36 2407.24 1025.12C2404.17 1027.89 2401.15 1029.82 2398.19 1030.92C2395.25 1032.02 2392.48 1032.27 2389.88 1031.69C2387.28 1031.11 2384.97 1029.69 2382.93 1027.44ZM2387.22 1023.56C2388.8 1025.32 2390.92 1025.92 2393.56 1025.38C2396.22 1024.83 2399.23 1023.04 2402.61 1019.99C2404.83 1017.98 2406.5 1016.05 2407.59 1014.22C2408.69 1012.38 2409.24 1010.69 2409.24 1009.15C2409.25 1007.6 2408.73 1006.24 2407.68 1005.08C2406.1 1003.34 2403.99 1002.74 2401.34 1003.3C2398.69 1003.84 2395.7 1005.62 2392.34 1008.63C2390.1 1010.64 2388.42 1012.57 2387.31 1014.4C2386.2 1016.25 2385.64 1017.94 2385.63 1019.49C2385.63 1021.04 2386.16 1022.39 2387.22 1023.56Z" fill="#242424"/>
</svg>
